<svg width="80" height="90" viewBox="0 0 80 90" fill="none" xmlns="http://www.w3.org/2000/svg">
<path d="M25.2962 59.7641C28.2714 62.7147 33.0662 62.7147 36.0414 59.7641C38.9921 56.7889 38.9921 51.9695 36.0414 49.0189L13.0265 26.004C10.0759 23.0534 5.25655 23.0534 2.28133 26.004C-0.669297 28.9792 -0.669297 33.7986 2.28133 36.7492L15.9034 50.3221L25.2962 59.7641Z" fill="url(#paint0_radial_871_11)"/>
<path d="M36.0412 2.25106C33.066 -0.699571 28.2712 -0.699571 25.296 2.25106L2.28111 25.2659C-0.620337 28.1674 -0.792452 32.7163 1.98606 35.6915L2.109 35.8144L2.25653 35.962C2.27292 35.9784 2.28111 35.9948 2.28111 36.0112C2.29751 36.0112 2.3139 36.0194 2.33029 36.0357L15.9032 49.584C8.60038 42.2812 18.4112 30.6263 18.4112 30.6263L36.0412 12.9963C38.9918 10.021 38.9918 5.22627 36.0412 2.25106Z" fill="#F26522"/>
<path d="M54.7043 30.6015C51.7291 27.6263 46.9343 27.6263 43.9591 30.6015C41.0084 33.5767 41.0084 38.3715 43.9591 41.3467L66.974 64.337C69.9246 67.3123 74.7439 67.3123 77.7192 64.337C80.6698 61.3864 80.6698 56.5671 77.7192 53.6164L64.0971 40.0435L54.7043 30.6015Z" fill="#F26522"/>
<path d="M43.9591 87.3769C46.9343 90.3276 51.7291 90.3276 54.7043 87.3769L77.7192 64.362C80.6206 61.4606 80.7927 56.9117 78.0142 53.9365L77.8913 53.8135L77.7438 53.666C77.7274 53.6496 77.7192 53.6332 77.7192 53.6168C77.7028 53.6004 77.6864 53.5922 77.67 53.5922L64.0971 40.0439C71.3999 47.3467 61.5891 58.9771 61.5891 58.9771H61.6137L43.9591 76.6317C41.0084 79.5824 41.0084 84.4017 43.9591 87.3769Z" fill="white"/>
<path d="M35.3034 84.328C34.074 88.213 29.9677 90.3768 26.0827 89.1719C22.1977 87.9425 20.0585 83.8116 21.2633 79.9512L45.0405 5.15282C46.2699 1.29241 50.4008 -0.871381 54.2612 0.333458C58.1462 1.5383 60.31 5.66918 59.0805 9.55417L35.3034 84.328Z" fill="white"/>
<defs>
<radialGradient id="paint0_radial_871_11" cx="0" cy="0" r="1" gradientUnits="userSpaceOnUse" gradientTransform="translate(14138.5 14567.6) scale(6557.57 6557.58)">
<stop offset="0.17" stop-color="white"/>
<stop offset="1" stop-color="white"/>
</radialGradient>
</defs>
</svg>
