<svg width="438" height="90" viewBox="0 0 438 90" fill="none" xmlns="http://www.w3.org/2000/svg">
<path d="M25.2962 59.7641C28.2714 62.7147 33.0662 62.7147 36.0414 59.7641C38.9921 56.7889 38.9921 51.9695 36.0414 49.0189L13.0265 26.004C10.0759 23.0534 5.25655 23.0534 2.28133 26.004C-0.669297 28.9792 -0.669297 33.7986 2.28133 36.7492L15.9034 50.3221L25.2962 59.7641Z" fill="url(#paint0_radial_871_13)"/>
<path d="M36.0412 2.25106C33.066 -0.699571 28.2712 -0.699571 25.296 2.25106L2.28111 25.2659C-0.620337 28.1674 -0.792452 32.7163 1.98606 35.6915L2.109 35.8144L2.25653 35.962C2.27292 35.9784 2.28111 35.9948 2.28111 36.0112C2.29751 36.0112 2.3139 36.0194 2.33029 36.0357L15.9032 49.584C8.60038 42.2812 18.4112 30.6263 18.4112 30.6263L36.0412 12.9963C38.9918 10.021 38.9918 5.22627 36.0412 2.25106Z" fill="#F26522"/>
<path d="M54.7043 30.6015C51.7291 27.6263 46.9343 27.6263 43.9591 30.6015C41.0084 33.5767 41.0084 38.3715 43.9591 41.3467L66.974 64.337C69.9246 67.3123 74.7439 67.3123 77.7192 64.337C80.6698 61.3864 80.6698 56.5671 77.7192 53.6164L64.0971 40.0435L54.7043 30.6015Z" fill="#F26522"/>
<path d="M43.9591 87.3769C46.9343 90.3276 51.7291 90.3276 54.7043 87.3769L77.7192 64.362C80.6206 61.4606 80.7927 56.9117 78.0142 53.9365L77.8913 53.8135L77.7438 53.666C77.7274 53.6496 77.7192 53.6332 77.7192 53.6168C77.7028 53.6004 77.6864 53.5922 77.67 53.5922L64.0971 40.0439C71.3999 47.3467 61.5891 58.9771 61.5891 58.9771H61.6137L43.9591 76.6317C41.0084 79.5824 41.0084 84.4017 43.9591 87.3769Z" fill="white"/>
<path d="M35.3034 84.328C34.074 88.213 29.9677 90.3768 26.0827 89.1719C22.1977 87.9425 20.0585 83.8116 21.2633 79.9512L45.0405 5.15282C46.2699 1.29241 50.4008 -0.871381 54.2612 0.333458C58.1462 1.5383 60.31 5.66918 59.0805 9.55417L35.3034 84.328Z" fill="white"/>
<path d="M115.68 66V31.92H102.24V24H138.84V31.92H125.4V66H115.68Z" fill="#F26522"/>
<path d="M147.07 66V24H165.25C169.01 24 172.25 24.62 174.97 25.86C177.69 27.06 179.79 28.8 181.27 31.08C182.75 33.36 183.49 36.08 183.49 39.24C183.49 42.36 182.75 45.06 181.27 47.34C179.79 49.58 177.69 51.3 174.97 52.5C172.25 53.7 169.01 54.3 165.25 54.3H152.47L156.79 50.04V66H147.07ZM173.77 66L163.27 50.76H173.65L184.27 66H173.77ZM156.79 51.12L152.47 46.56H164.71C167.71 46.56 169.95 45.92 171.43 44.64C172.91 43.32 173.65 41.52 173.65 39.24C173.65 36.92 172.91 35.12 171.43 33.84C169.95 32.56 167.71 31.92 164.71 31.92H152.47L156.79 27.3V51.12ZM203.131 40.92H223.351V48.48H203.131V40.92ZM203.851 58.2H226.711V66H194.191V24H225.931V31.8H203.851V58.2ZM246.145 66V31.92H232.705V24H269.305V31.92H255.865V66H246.145ZM269.905 66L288.625 24H298.225L317.005 66H306.805L291.445 28.92H295.285L279.865 66H269.905ZM279.265 57L281.845 49.62H303.445L306.085 57H279.265ZM324.363 66V24H332.403L357.183 54.24H353.283V24H362.883V66H354.903L330.063 35.76H333.963V66H324.363ZM375.82 66V24H385.54V66H375.82ZM418.607 66.72C415.367 66.72 412.347 66.2 409.547 65.16C406.787 64.08 404.387 62.56 402.347 60.6C400.307 58.64 398.707 56.34 397.547 53.7C396.427 51.06 395.867 48.16 395.867 45C395.867 41.84 396.427 38.94 397.547 36.3C398.707 33.66 400.307 31.36 402.347 29.4C404.427 27.44 406.847 25.94 409.607 24.9C412.367 23.82 415.387 23.28 418.667 23.28C422.307 23.28 425.587 23.92 428.507 25.2C431.467 26.44 433.947 28.28 435.947 30.72L429.707 36.48C428.267 34.84 426.667 33.62 424.907 32.82C423.147 31.98 421.227 31.56 419.147 31.56C417.187 31.56 415.387 31.88 413.747 32.52C412.107 33.16 410.687 34.08 409.487 35.28C408.287 36.48 407.347 37.9 406.667 39.54C406.027 41.18 405.707 43 405.707 45C405.707 47 406.027 48.82 406.667 50.46C407.347 52.1 408.287 53.52 409.487 54.72C410.687 55.92 412.107 56.84 413.747 57.48C415.387 58.12 417.187 58.44 419.147 58.44C421.227 58.44 423.147 58.04 424.907 57.24C426.667 56.4 428.267 55.14 429.707 53.46L435.947 59.22C433.947 61.66 431.467 63.52 428.507 64.8C425.587 66.08 422.287 66.72 418.607 66.72Z" fill="white"/>
<defs>
<radialGradient id="paint0_radial_871_13" cx="0" cy="0" r="1" gradientUnits="userSpaceOnUse" gradientTransform="translate(14138.5 14567.6) scale(6557.57 6557.58)">
<stop offset="0.17" stop-color="white"/>
<stop offset="1" stop-color="white"/>
</radialGradient>
</defs>
</svg>
